<?xml version="1.0" encoding="UTF-8" standalone="no"?>
<!-- Created with Inkscape (http://www.inkscape.org/) -->

<svg
   width="81.648941mm"
   height="85.557213mm"
   viewBox="0 0 81.648941 85.557213"
   version="1.1"
   id="svg1"
   xml:space="preserve"
   xmlns="http://www.w3.org/2000/svg"
   xmlns:svg="http://www.w3.org/2000/svg"><defs
     id="defs1" /><path
     id="path2"
     style="fill:#ffc14a;fill-opacity:1;stroke-width:0.264583"
     d="m 47.921834,32.50856 c -4.67046,0.18472 -8.71524,4.26294 -8.72092,9.32708 -0.008,6.76218 6.85095,11.32967 12.8292,8.54315 8.28493,-3.86168 6.87708,-15.85307 -2.07843,-17.7028 -0.68279,-0.14103 -1.36264,-0.19382 -2.02985,-0.16743 z" /><g
     id="layer1"
     transform="translate(-68.793006,-82.96553)"><path
       id="path6"
       style="fill:#fff7ed;fill-opacity:1;stroke-width:0.264583"
       d="m 108.09676,82.967029 c -9.797857,0.08663 -19.85572,3.922662 -28.430822,12.900504 -26.992533,28.260277 0.271139,77.138597 38.048322,68.212887 2.89257,-0.68344 0.79363,-0.98826 21.8798,3.175 7.87932,1.5557 8.38971,1.58789 9.34362,0.59222 1.2705,-1.32611 1.04695,-1.89759 -6.088,-15.59388 -2.23896,-4.29791 -2.23908,-4.29816 -0.64079,-6.41925 22.33562,-29.64161 -4.71855,-63.127379 -34.11213,-62.867481 z m 1.38493,10.094474 c 5.88145,-0.05447 11.97371,1.600901 17.6506,5.364531 16.76011,11.111506 17.16274,36.226556 0.76636,47.790876 -0.71,0.50077 -0.53586,0.88258 3.04064,6.66626 1.06761,1.72646 2.02006,3.27196 2.11667,3.43442 0.24849,0.4178 -0.6346,1.08735 -1.26711,0.96067 -1.28303,-0.25698 -8.81603,-2.54029 -10.79055,-3.27061 -2.1739,-0.80408 -2.17402,-0.80411 -4.1584,-0.13487 -15.88054,5.35583 -35.055529,-7.3083 -37.707779,-24.90391 -3.043478,-20.19105 12.705218,-35.743969 30.349569,-35.907367 z" /></g></svg>
